<mxfile host="65bd71144e">
    <diagram id="G5lhXh05xCQTbcObvKxY" name="Page-1">
        <mxGraphModel dx="1928" dy="702" grid="1" gridSize="10" guides="1" tooltips="1" connect="1" arrows="1" fold="1" page="1" pageScale="1" pageWidth="827" pageHeight="1169" math="0" shadow="0">
            <root>
                <mxCell id="0"/>
                <mxCell id="1" parent="0"/>
                <mxCell id="vrUNonrRYL053WXIr1a5-3" value="" style="edgeStyle=orthogonalEdgeStyle;rounded=0;orthogonalLoop=1;jettySize=auto;html=1;" parent="1" source="vrUNonrRYL053WXIr1a5-1" target="vrUNonrRYL053WXIr1a5-2" edge="1">
                    <mxGeometry relative="1" as="geometry"/>
                </mxCell>
                <mxCell id="vrUNonrRYL053WXIr1a5-5" value="" style="edgeStyle=orthogonalEdgeStyle;rounded=0;orthogonalLoop=1;jettySize=auto;html=1;" parent="1" source="vrUNonrRYL053WXIr1a5-1" target="vrUNonrRYL053WXIr1a5-4" edge="1">
                    <mxGeometry relative="1" as="geometry"/>
                </mxCell>
                <mxCell id="vrUNonrRYL053WXIr1a5-7" value="" style="edgeStyle=orthogonalEdgeStyle;rounded=0;orthogonalLoop=1;jettySize=auto;html=1;" parent="1" source="vrUNonrRYL053WXIr1a5-1" target="vrUNonrRYL053WXIr1a5-6" edge="1">
                    <mxGeometry relative="1" as="geometry"/>
                </mxCell>
                <mxCell id="vrUNonrRYL053WXIr1a5-1" value="Vehicle" style="rounded=0;whiteSpace=wrap;html=1;fillColor=#dae8fc;strokeColor=#6c8ebf;" parent="1" vertex="1">
                    <mxGeometry x="350" y="130" width="120" height="60" as="geometry"/>
                </mxCell>
                <mxCell id="vrUNonrRYL053WXIr1a5-9" value="" style="edgeStyle=orthogonalEdgeStyle;rounded=0;orthogonalLoop=1;jettySize=auto;html=1;" parent="1" source="vrUNonrRYL053WXIr1a5-2" target="vrUNonrRYL053WXIr1a5-8" edge="1">
                    <mxGeometry relative="1" as="geometry"/>
                </mxCell>
                <mxCell id="vrUNonrRYL053WXIr1a5-11" value="" style="edgeStyle=orthogonalEdgeStyle;rounded=0;orthogonalLoop=1;jettySize=auto;html=1;" parent="1" source="vrUNonrRYL053WXIr1a5-2" target="vrUNonrRYL053WXIr1a5-10" edge="1">
                    <mxGeometry relative="1" as="geometry"/>
                </mxCell>
                <mxCell id="vrUNonrRYL053WXIr1a5-13" value="" style="edgeStyle=orthogonalEdgeStyle;rounded=0;orthogonalLoop=1;jettySize=auto;html=1;" parent="1" source="vrUNonrRYL053WXIr1a5-2" target="vrUNonrRYL053WXIr1a5-12" edge="1">
                    <mxGeometry relative="1" as="geometry"/>
                </mxCell>
                <mxCell id="4" style="edgeStyle=none;html=1;exitX=1;exitY=0;exitDx=0;exitDy=0;entryX=0.5;entryY=0;entryDx=0;entryDy=0;" edge="1" parent="1" source="vrUNonrRYL053WXIr1a5-2" target="2">
                    <mxGeometry relative="1" as="geometry">
                        <Array as="points">
                            <mxPoint x="170" y="240"/>
                        </Array>
                    </mxGeometry>
                </mxCell>
                <mxCell id="vrUNonrRYL053WXIr1a5-2" value="LandVehicle" style="rounded=0;whiteSpace=wrap;html=1;fillColor=#f8cecc;strokeColor=#b85450;" parent="1" vertex="1">
                    <mxGeometry x="-110" y="240" width="120" height="60" as="geometry"/>
                </mxCell>
                <mxCell id="vrUNonrRYL053WXIr1a5-15" value="" style="edgeStyle=orthogonalEdgeStyle;rounded=0;orthogonalLoop=1;jettySize=auto;html=1;" parent="1" source="vrUNonrRYL053WXIr1a5-4" target="vrUNonrRYL053WXIr1a5-14" edge="1">
                    <mxGeometry relative="1" as="geometry"/>
                </mxCell>
                <mxCell id="vrUNonrRYL053WXIr1a5-17" value="" style="edgeStyle=orthogonalEdgeStyle;rounded=0;orthogonalLoop=1;jettySize=auto;html=1;" parent="1" source="vrUNonrRYL053WXIr1a5-4" target="vrUNonrRYL053WXIr1a5-16" edge="1">
                    <mxGeometry relative="1" as="geometry"/>
                </mxCell>
                <mxCell id="vrUNonrRYL053WXIr1a5-20" value="" style="edgeStyle=orthogonalEdgeStyle;rounded=0;orthogonalLoop=1;jettySize=auto;html=1;" parent="1" source="vrUNonrRYL053WXIr1a5-4" target="vrUNonrRYL053WXIr1a5-19" edge="1">
                    <mxGeometry relative="1" as="geometry"/>
                </mxCell>
                <mxCell id="3" style="edgeStyle=none;html=1;exitX=0;exitY=0;exitDx=0;exitDy=0;entryX=0.5;entryY=0;entryDx=0;entryDy=0;" edge="1" parent="1" source="vrUNonrRYL053WXIr1a5-4" target="2">
                    <mxGeometry relative="1" as="geometry">
                        <Array as="points">
                            <mxPoint x="170" y="240"/>
                        </Array>
                    </mxGeometry>
                </mxCell>
                <mxCell id="vrUNonrRYL053WXIr1a5-4" value="SeaVehicle" style="rounded=0;whiteSpace=wrap;html=1;fillColor=#e1d5e7;strokeColor=#9673a6;" parent="1" vertex="1">
                    <mxGeometry x="350" y="240" width="120" height="60" as="geometry"/>
                </mxCell>
                <mxCell id="vrUNonrRYL053WXIr1a5-22" value="" style="edgeStyle=orthogonalEdgeStyle;rounded=0;orthogonalLoop=1;jettySize=auto;html=1;" parent="1" source="vrUNonrRYL053WXIr1a5-6" target="vrUNonrRYL053WXIr1a5-21" edge="1">
                    <mxGeometry relative="1" as="geometry"/>
                </mxCell>
                <mxCell id="vrUNonrRYL053WXIr1a5-24" value="" style="edgeStyle=orthogonalEdgeStyle;rounded=0;orthogonalLoop=1;jettySize=auto;html=1;" parent="1" source="vrUNonrRYL053WXIr1a5-6" target="vrUNonrRYL053WXIr1a5-23" edge="1">
                    <mxGeometry relative="1" as="geometry"/>
                </mxCell>
                <mxCell id="vrUNonrRYL053WXIr1a5-26" value="" style="edgeStyle=orthogonalEdgeStyle;rounded=0;orthogonalLoop=1;jettySize=auto;html=1;" parent="1" source="vrUNonrRYL053WXIr1a5-6" target="vrUNonrRYL053WXIr1a5-25" edge="1">
                    <mxGeometry relative="1" as="geometry"/>
                </mxCell>
                <mxCell id="vrUNonrRYL053WXIr1a5-6" value="AirVehicle" style="rounded=0;whiteSpace=wrap;html=1;fillColor=#d5e8d4;strokeColor=#82b366;" parent="1" vertex="1">
                    <mxGeometry x="860" y="230" width="120" height="60" as="geometry"/>
                </mxCell>
                <mxCell id="vrUNonrRYL053WXIr1a5-8" value="Car" style="rounded=0;whiteSpace=wrap;html=1;fillColor=#f8cecc;strokeColor=#b85450;" parent="1" vertex="1">
                    <mxGeometry x="-250" y="350" width="120" height="60" as="geometry"/>
                </mxCell>
                <mxCell id="vrUNonrRYL053WXIr1a5-10" value="Bus" style="rounded=0;whiteSpace=wrap;html=1;fillColor=#f8cecc;strokeColor=#b85450;" parent="1" vertex="1">
                    <mxGeometry x="-110" y="350" width="120" height="60" as="geometry"/>
                </mxCell>
                <mxCell id="vrUNonrRYL053WXIr1a5-12" value="Truck" style="rounded=0;whiteSpace=wrap;html=1;fillColor=#f8cecc;strokeColor=#b85450;" parent="1" vertex="1">
                    <mxGeometry x="30" y="350" width="120" height="60" as="geometry"/>
                </mxCell>
                <mxCell id="vrUNonrRYL053WXIr1a5-14" value="Yatch" style="rounded=0;whiteSpace=wrap;html=1;fillColor=#e1d5e7;strokeColor=#9673a6;" parent="1" vertex="1">
                    <mxGeometry x="190" y="350" width="120" height="60" as="geometry"/>
                </mxCell>
                <mxCell id="vrUNonrRYL053WXIr1a5-16" value="Jetski" style="rounded=0;whiteSpace=wrap;html=1;fillColor=#e1d5e7;strokeColor=#9673a6;" parent="1" vertex="1">
                    <mxGeometry x="350" y="350" width="120" height="60" as="geometry"/>
                </mxCell>
                <mxCell id="vrUNonrRYL053WXIr1a5-19" value="Boat" style="rounded=0;whiteSpace=wrap;html=1;fillColor=#e1d5e7;strokeColor=#9673a6;" parent="1" vertex="1">
                    <mxGeometry x="530" y="350" width="120" height="60" as="geometry"/>
                </mxCell>
                <mxCell id="vrUNonrRYL053WXIr1a5-21" value="Plane" style="rounded=0;whiteSpace=wrap;html=1;fillColor=#d5e8d4;strokeColor=#82b366;" parent="1" vertex="1">
                    <mxGeometry x="707" y="350" width="120" height="60" as="geometry"/>
                </mxCell>
                <mxCell id="vrUNonrRYL053WXIr1a5-23" value="Helicopter" style="rounded=0;whiteSpace=wrap;html=1;fillColor=#d5e8d4;strokeColor=#82b366;" parent="1" vertex="1">
                    <mxGeometry x="860" y="350" width="120" height="60" as="geometry"/>
                </mxCell>
                <mxCell id="vrUNonrRYL053WXIr1a5-25" value="Planeur" style="rounded=0;whiteSpace=wrap;html=1;fillColor=#d5e8d4;strokeColor=#82b366;" parent="1" vertex="1">
                    <mxGeometry x="1020" y="350" width="120" height="60" as="geometry"/>
                </mxCell>
                <mxCell id="2" value="Hovercraft" style="rounded=0;whiteSpace=wrap;html=1;" vertex="1" parent="1">
                    <mxGeometry x="110" y="480" width="120" height="60" as="geometry"/>
                </mxCell>
            </root>
        </mxGraphModel>
    </diagram>
</mxfile>